<?xml version="1.0" standalone="no"?>

<svg xmlns:dc="http://purl.org/dc/elements/1.1/"
     xmlns:cc="http://creativecommons.org/ns#"
     xmlns:rdf="http://www.w3.org/1999/02/22-rdf-syntax-ns#"
     xmlns:svg="http://www.w3.org/2000/svg"
     xmlns="http://www.w3.org/2000/svg"
     xmlns:sodipodi="http://sodipodi.sourceforge.net/DTD/sodipodi-0.dtd"
     xmlns:inkscape="http://www.inkscape.org/namespaces/inkscape"
     version="1.1" width="660" height="220" viewBox="0 0 330 110">

<style>
.loading_restconf {
 stroke : #606060;
 fill : #a0a0a0;
 stroke-width : 1;
 stroke-dasharray  : 3000;
 stroke-dashoffset : 3000;
 animation         : DASH 3s ease-in alternate forwards;
 -webkit-animation : DASH 3s ease-in 0s forwards;
 -o-animation      : DASH 3s ease-in 0s forwards;
 animation         : DASH 3s ease-in 0s forwards;
 animation-iteration-count : infinite;
 
 fill-opacity : 0;
}

@keyframes DASH{
 0%{stroke-dashoffset:3000; fill-opacity : 0;}
 100%{stroke-dashoffset:0; fill-opacity : 1;}
}
@-moz-keyframes DASH{
 0%{stroke-dashoffset:3000; fill-opacity : 0;}
 100%{stroke-dashoffset:0; fill-opacity : 1;}
}
@-webkit-keyframes DASH{
 0%{stroke-dashoffset:3000; fill-opacity : 0;}
 100%{stroke-dashoffset:0; fill-opacity : 1;}
}
</style>

<path class="loading_restconf"
 d="m 30,72.602183 c 4.24,0.08 4.24,0.08 4.72,0.08 4.16,0 11.36001,-0.16 13.76,-0.32 l 5.92,-3.04 c -2.95999,-0.08 -3.68,-0.08 -10.56,-0.24 9.03999,-9.039988 9.52001,-9.760007 12.08,-19.919997 0.08,-0.08 0.16,-0.08 0.16,-0.08 0.88,-0.08 1.36,0.640002 1.84,2.64 3.04,13.359987 5.68001,20.960007 8.96,25.839997 3.44,5.12 8.16001,7.6 14.48,7.6 4.48,0 7.20001,-0.96 11.68,-4.24 l -3.92,-4.88 c -2.55999,4.72 -4.8,6.56 -7.92,6.56 -3.75999,0 -7.36,-4 -10.64,-11.92 -2.08,-4.95999 -4.56,-12.400007 -7.84,-22.799997 4.56,-1.439999 6.40001,-2.320002 8.88,-3.92 3.76,-2.559997 5.92,-6.240004 5.92,-10.08 0,-4.959995 -4,-7.68 -11.28,-7.68 -0.96,0 -2.96,0.08 -4.64,0.16 l 0.64,-2.56 -7.28,3.44 c -13.11998,2.239998 -20.08,8.320009 -20.08,17.68 0,2.079998 0.24,3.440003 1.12,6.4 l 6.72,-3.44 c -0.64,-2.719997 -0.88,-4.080002 -0.88,-5.92 0,-3.839996 1.20001,-6.880002 3.68,-9.2 2.24,-1.999998 4.48001,-2.880001 9.6,-3.52 l -0.72,2.88 c -0.32,1.279999 -0.8,3.120003 -1.36,5.6 l -4,15.84 C 45.68001,67.082173 43.51999,69.162183 33.12,69.082183 l -3.12,3.52 m 31.04,-43.999997 2.48,0 c 4.96,0 7.04,1.840004 7.04,6.24 0,3.999996 -2.16,7.840002 -5.52,9.92 -2.39999,1.439999 -4.32,2.000001 -8.64,2.56 l 4.64,-18.72"
/>
<path class="loading_restconf"
 d="m 105.32875,61.722186 c -5.99999,5.199997 -9.84,7.439997 -12.88,7.439997 -2,0 -3.68,-1.36 -4.24,-3.44 -0.32,-1.28 -0.4,-2.16 -0.4,-4.479997 3.6,-2.239998 6.00001,-3.920003 10.72,-7.44 4.32,-3.279997 6,-5.920004 6,-9.52 0,-2.799997 -1.76,-4.48 -4.56,-4.48 -1.76,0 -3.04,0.400001 -4.88,1.44 -3.03999,1.759998 -5.76,3.920002 -7.44,5.84 -3.03999,3.679996 -5.76,12.480007 -5.76,18.959997 0,4.72 2.48001,7.68 6.56,7.68 4.72,0 10.56001,-3.36 16.88,-9.68 l 0,-2.319997 m -17.28,-3.36 c 1.36,-8.559991 5.04001,-15.2 8.48,-15.2 1.36,0 2.24,1.360002 2.24,3.28 0,3.999996 -2.16001,6.400006 -10.72,11.92"
/>
<path  class="loading_restconf"
 d="m 105.55625,66.042183 c -0.08,0.72 -0.16,1.36 -0.16,1.84 0,3.44 2.40001,5.84 5.92,5.84 2.48,0 5.92001,-1.04 8.48,-2.48 4.72,-2.71999 7.6,-6.8 7.6,-10.799997 0,-2.959997 -0.56,-3.600003 -5.04,-6.4 -2.71999,-1.759998 -3.84,-3.280002 -3.84,-5.36 0,-2.719997 2.32001,-5.12 5.04,-5.12 1.84,0 3.2,0.880002 4.96,3.12 2.72,-2.639997 2.72,-2.640001 3.76,-4.16 -1.6,-1.919998 -3.12,-2.72 -5.36,-2.72 -5.83999,0 -13.36,6.960005 -13.36,12.24 0,2.479998 1.28001,4.400002 4.32,6.56 4,2.799997 4.56,3.520002 4.56,5.519997 0,2.88 -3.68,6.24 -6.8,6.24 -1.76,0 -3.12,-0.96 -3.92,-2.72 -0.56,-1.2 -0.72,-2.4 -0.8,-5.119997 -0.88,0.639999 -1.52,1.039997 -1.84,1.279997 -0.64,0.4 -1.36,0.8 -2.08,1.28 l -1.44,0.96"
/>
<path  class="loading_restconf"
 d="m 156.78125,62.602186 c -6.07999,3.599997 -8.64,4.959997 -9.76,4.959997 -1.04,0 -2.32,-2.08 -2.32,-3.76 0,-1.119996 1.36,-7.280005 3.44,-15.679997 1.12,-0.08 1.92,-0.08 2.32,-0.08 l 3.2,-0.08 c 0.32,0 1.12,-0.08 2.4,-0.24 l 3.04,-2.32 -10.24,0 3.2,-12.96 c -1.52,0.799999 -2.16,1.040001 -3.36,1.6 -0.56,0.32 -1.2,0.56 -1.84,0.88 -0.32,0.16 -0.72,0.32 -1.12,0.48 l -2.24,10 c -0.72,0.08 -1.2,0.08 -1.44,0.08 l -1.92,0 c -0.16,0 -0.56,0 -1.2,0.08 -0.88,0.559999 -0.96,0.560001 -2.32,1.68 -0.24,0.16 -0.64,0.48 -1.2,0.88 l 1.92,0 3.68,0 1.76,0 c -4.23999,17.759987 -4.24,17.760007 -4.24,20.239997 0,2.56 1.68,5.36 3.2,5.36 1.76,0 7.20001,-3.36 14.88,-9.12 l 0.16,-1.999997"
/>
<path  class="loading_restconf"
 d="m 184.00625,62.522186 c -6.15999,4.399997 -10.4,6.639997 -12.96,6.639997 -2.87999,0 -4.56,-2.24 -4.56,-6.079997 0,-3.839996 0.96,-8.960004 2.48,-12.72 1.6,-4.239996 3.68001,-6.4 6,-6.4 1.92,0 2.96,1.520004 3.36,5.04 l 4.64,-2.72 c 0.08,-0.4 0.08,-0.8 0.08,-0.88 0,-3.439997 -1.76,-5.6 -4.56,-5.6 -1.44,0 -2.32,0.320002 -5.2,2.24 -5.99999,3.759996 -7.28,4.960003 -9.04,8.24 -2.23999,4.319996 -3.92,11.120005 -3.92,16.079997 0,4.64 2.16001,7.36 5.84,7.36 3.84,0 10.40001,-3.2 17.68,-8.64 l 0.16,-2.559997"
/>
<path  class="loading_restconf"
 d="m 209.27375,39.802186 c -3.19999,0 -8.32,2.320004 -13.04,5.84 -5.11999,3.839996 -8.72,12.160008 -8.72,20.079997 0,4.88 2.72001,8 6.96,8 2.24,0 4.48001,-0.8 8.16,-2.72 4,-2.23999 6.64,-4.24 8.08,-6.16 3.2,-4.319993 5.76,-12.160002 5.76,-17.679997 0,-4.319996 -2.96,-7.36 -7.2,-7.36 m -4.16,3.76 c 3.2,0 5.2,3.120005 5.2,7.92 0,3.359997 -1.12,7.520004 -3.12,11.44 -2.23999,4.559997 -5.12,7.039997 -8.16,7.039997 -3.27999,0 -5.36,-2.96 -5.36,-7.519997 0,-9.279991 5.84001,-18.88 11.44,-18.88"
/>
<path  class="loading_restconf"
 d="m 225.705,71.162183 4.72,-18.799997 c 9.99999,-6.319994 10.24,-6.4 11.36,-6.4 0.56,0 0.88,0.400001 0.88,1.04 0,1.199999 -0.64,4.240009 -2.96,13.36 -1.76,7.119997 -2.08,8.479997 -2.08,9.999997 0,1.12 0.32,2.16 1.2,3.6 3.68,-1.68 9.20001,-5.12 14.8,-9.28 l 0.56,-2.239997 c -7.99999,4.559997 -8.32,4.719997 -9.12,4.719997 -0.8,0 -1.28,-0.88 -1.28,-2.16 0,-1.68 0.56,-4.320002 2.08,-9.839997 3.76,-13.439987 3.76,-13.440001 3.76,-14 0,-0.879999 -0.56,-1.36 -1.6,-1.36 -1.2,0 -2.96,0.720002 -5.84,2.56 l -10.96,6.8 c 0.72,-2.639997 1.92,-7.680001 1.92,-8.32 0,-0.559999 -0.48,-1.04 -1.04,-1.04 -0.88,0 -6.64,2.960004 -12.56,6.48 l -0.48,2.08 c 5.12,-2.319998 5.44,-2.4 6.16,-2.4 0.56,0 0.96,0.480001 0.96,1.12 0,1.679998 -1.52,8.320007 -3.52,15.6 l -1.84,6.479997 c -0.16,0.56 -0.56,2.08001 -1.12,4.32 l 6,-2.32"
/>
<path  class="loading_restconf"
 d="m 277.46,47.722186 c 0.24,0 0.72,0 1.6,0.08 l 3.28,-2.56 c -4.15999,-0.08 -4.16,-0.08 -5.04,-0.08 -0.96,0 -0.96,0 -4.72,0.08 5.2,-20.31998 6.40001,-22.8 11.12,-22.8 1.36,0 2.40001,0.160001 5.36,0.64 l 3.68,-4.32 c -1.6,-0.4 -2.24,-0.48 -3.84,-0.48 -4.79999,0 -8.16,1.760005 -13.52,6.96 -4.47999,4.319996 -5.52,6.720013 -8.64,20 -0.8,-0.08 -1.2,-0.08 -1.6,-0.08 l -3.92,0.16 c -0.16,0 -0.56,0 -1.2,-0.08 -0.48,0.32 -0.96,0.64 -1.12,0.72 l -1.76,0.96 c -0.32,0.16 -0.96,0.48 -1.6,0.88 l 2,0 c 0,0 5.6,0.08 5.6,0.08 0.48,0 1.36,0 2.96,-0.08 -1.28,4.879995 -1.76,7.040007 -3.28,14 -4.79999,21.999977 -6.64,25.599997 -13.44,25.599997 -1.12,0 -2.08,-0.08 -4.24,-0.4 -0.8,1.2 -1.04,1.6 -1.6,2.32 -0.64,0.88 -1.36,1.76 -2,2.72 1.76,0.24 2.64,0.32 3.92,0.32 2.64,0 4.72,-0.4 6,-1.12 2.32,-1.28 6.4,-5.2 8.56,-8 2.48,-3.35999 5.36,-10.24 7.2,-17.52 3.44,-13.039984 4.32,-16.319999 4.72,-17.919997 0.72,0.08 1.04,0.08 1.36,0.08 l 4.16,-0.16"
/>
 
</svg>
